<?xml version="1.0" encoding="utf-8"?>
<!-- Generator: Adobe Illustrator 22.0.1, SVG Export Plug-In . SVG Version: 6.00 Build 0)  -->
<svg version="1.1" id="Layer_1" xmlns="http://www.w3.org/2000/svg" xmlns:xlink="http://www.w3.org/1999/xlink" x="0px" y="0px"
	 viewBox="0 0 480 480" style="enable-background:new 0 0 480 480;" xml:space="preserve">
<style type="text/css">
	.st0{fill:#F49058;}
	.st1{display:none;fill:#9BC9FF;}
	.st2{fill:#B76C42;}
	.st3{fill:#AC4917;}
</style>
<path class="st0" d="M112,88V56H32v80h416V56h-80v32h-32V56H144v32H112z"/>
<path class="st1" d="M112,8v80h32V8H112z"/>
<path class="st1" d="M368,88V8h-32v80H368z"/>
<g>
	<path class="st2" d="M448,48h-72V8c0-4.4-3.6-8-8-8h-32c-4.4,0-8,3.6-8,8v40H152V8c0-4.4-3.6-8-8-8h-32c-4.4,0-8,3.6-8,8v40H32
		c-4.4,0-8,3.6-8,8v416c0,4.4,3.6,8,8,8h416c4.4,0,8-3.6,8-8V56C456,51.6,452.4,48,448,48z M344,16h16v64h-16V16z M120,16h16v64h-16
		V16z M104,64v24c0,4.4,3.6,8,8,8h32c4.4,0,8-3.6,8-8V64h176v24c0,4.4,3.6,8,8,8h32c4.4,0,8-3.6,8-8V64h64v64H40V64H104z M40,464
		V144h400v320H40z"/>
	<path class="st3" d="M200,200h-16c-4.4,0-8-3.6-8-8s3.6-8,8-8h16c4.4,0,8,3.6,8,8S204.4,200,200,200z"/>
	<path class="st3" d="M248,200h-16c-4.4,0-8-3.6-8-8s3.6-8,8-8h16c4.4,0,8,3.6,8,8S252.4,200,248,200z"/>
	<path class="st3" d="M296,200h-16c-4.4,0-8-3.6-8-8s3.6-8,8-8h16c4.4,0,8,3.6,8,8S300.4,200,296,200z"/>
	<path class="st3" d="M344,200h-16c-4.4,0-8-3.6-8-8s3.6-8,8-8h16c4.4,0,8,3.6,8,8S348.4,200,344,200z"/>
	<path class="st3" d="M392,200h-16c-4.4,0-8-3.6-8-8s3.6-8,8-8h16c4.4,0,8,3.6,8,8S396.4,200,392,200z"/>
	<path class="st3" d="M200,256h-16c-4.4,0-8-3.6-8-8s3.6-8,8-8h16c4.4,0,8,3.6,8,8S204.4,256,200,256z"/>
	<path class="st3" d="M248,256h-16c-4.4,0-8-3.6-8-8s3.6-8,8-8h16c4.4,0,8,3.6,8,8S252.4,256,248,256z"/>
	<path class="st3" d="M296,256h-16c-4.4,0-8-3.6-8-8s3.6-8,8-8h16c4.4,0,8,3.6,8,8S300.4,256,296,256z"/>
	<path class="st3" d="M344,256h-16c-4.4,0-8-3.6-8-8s3.6-8,8-8h16c4.4,0,8,3.6,8,8S348.4,256,344,256z"/>
	<path class="st3" d="M152,256h-16c-4.4,0-8-3.6-8-8s3.6-8,8-8h16c4.4,0,8,3.6,8,8S156.4,256,152,256z"/>
	<path class="st3" d="M104,256H88c-4.4,0-8-3.6-8-8s3.6-8,8-8h16c4.4,0,8,3.6,8,8S108.4,256,104,256z"/>
	<path class="st3" d="M392,256h-16c-4.4,0-8-3.6-8-8s3.6-8,8-8h16c4.4,0,8,3.6,8,8S396.4,256,392,256z"/>
	<path class="st3" d="M200,312h-16c-4.4,0-8-3.6-8-8s3.6-8,8-8h16c4.4,0,8,3.6,8,8S204.4,312,200,312z"/>
	<path class="st3" d="M248,312h-16c-4.4,0-8-3.6-8-8s3.6-8,8-8h16c4.4,0,8,3.6,8,8S252.4,312,248,312z"/>
	<path class="st3" d="M296,312h-16c-4.4,0-8-3.6-8-8s3.6-8,8-8h16c4.4,0,8,3.6,8,8S300.4,312,296,312z"/>
	<path class="st3" d="M344,312h-16c-4.4,0-8-3.6-8-8s3.6-8,8-8h16c4.4,0,8,3.6,8,8S348.4,312,344,312z"/>
	<path class="st3" d="M152,312h-16c-4.4,0-8-3.6-8-8s3.6-8,8-8h16c4.4,0,8,3.6,8,8S156.4,312,152,312z"/>
	<path class="st3" d="M104,312H88c-4.4,0-8-3.6-8-8s3.6-8,8-8h16c4.4,0,8,3.6,8,8S108.4,312,104,312z"/>
	<path class="st3" d="M392,312h-16c-4.4,0-8-3.6-8-8s3.6-8,8-8h16c4.4,0,8,3.6,8,8S396.4,312,392,312z"/>
	<path class="st3" d="M200,368h-16c-4.4,0-8-3.6-8-8s3.6-8,8-8h16c4.4,0,8,3.6,8,8S204.4,368,200,368z"/>
	<path class="st3" d="M248,368h-16c-4.4,0-8-3.6-8-8s3.6-8,8-8h16c4.4,0,8,3.6,8,8S252.4,368,248,368z"/>
	<path class="st3" d="M296,368h-16c-4.4,0-8-3.6-8-8s3.6-8,8-8h16c4.4,0,8,3.6,8,8S300.4,368,296,368z"/>
	<path class="st3" d="M344,368h-16c-4.4,0-8-3.6-8-8s3.6-8,8-8h16c4.4,0,8,3.6,8,8S348.4,368,344,368z"/>
	<path class="st3" d="M152,368h-16c-4.4,0-8-3.6-8-8s3.6-8,8-8h16c4.4,0,8,3.6,8,8S156.4,368,152,368z"/>
	<path class="st3" d="M104,368H88c-4.4,0-8-3.6-8-8s3.6-8,8-8h16c4.4,0,8,3.6,8,8S108.4,368,104,368z"/>
	<path class="st3" d="M392,368h-16c-4.4,0-8-3.6-8-8s3.6-8,8-8h16c4.4,0,8,3.6,8,8S396.4,368,392,368z"/>
	<path class="st3" d="M200,424h-16c-4.4,0-8-3.6-8-8s3.6-8,8-8h16c4.4,0,8,3.6,8,8S204.4,424,200,424z"/>
	<path class="st3" d="M248,424h-16c-4.4,0-8-3.6-8-8s3.6-8,8-8h16c4.4,0,8,3.6,8,8S252.4,424,248,424z"/>
	<path class="st3" d="M152,424h-16c-4.4,0-8-3.6-8-8s3.6-8,8-8h16c4.4,0,8,3.6,8,8S156.4,424,152,424z"/>
	<path class="st3" d="M104,424H88c-4.4,0-8-3.6-8-8s3.6-8,8-8h16c4.4,0,8,3.6,8,8S108.4,424,104,424z"/>
</g>
</svg>
