<?xml version="1.0" encoding="utf-8"?>
<!-- Generator: Adobe Illustrator 22.0.1, SVG Export Plug-In . SVG Version: 6.00 Build 0)  -->
<svg version="1.1" id="Layer_1" xmlns="http://www.w3.org/2000/svg" xmlns:xlink="http://www.w3.org/1999/xlink" x="0px" y="0px"
	 viewBox="0 0 426.7 426.7" style="enable-background:new 0 0 426.7 426.7;" xml:space="preserve">
<style type="text/css">
	.st0{fill:#673AB7;}
</style>
<g>
	<path class="st0" d="M213.3,0C95.5,0,0,95.5,0,213.3c0,117.9,95.5,213.3,213.3,213.3s213.3-95.5,213.3-213.3
		C426.7,95.5,331.2,0,213.3,0z M213.3,99.5c14.8,0,26.8,12,26.8,26.8s-12,26.8-26.8,26.8s-26.8-12-26.8-26.8S198.5,99.5,213.3,99.5z
		 M260.2,327.2h-93.7V287h20.1v-80.4h-20.1v-40.2h73.7v40.2V287h20.1L260.2,327.2L260.2,327.2L260.2,327.2z"/>
</g>
</svg>
