<?xml version="1.0" encoding="utf-8"?>
<!-- Generator: Adobe Illustrator 22.0.1, SVG Export Plug-In . SVG Version: 6.00 Build 0)  -->
<svg version="1.1" id="Layer_1" xmlns="http://www.w3.org/2000/svg" xmlns:xlink="http://www.w3.org/1999/xlink" x="0px" y="0px"
	 viewBox="0 0 503.1 503.1" style="enable-background:new 0 0 503.1 503.1;" xml:space="preserve">
<style type="text/css">
	.st0{fill:#0063E4;}
	.st1{fill:#0020C2;}
</style>
<path class="st0" d="M335.2,168c10.4,10.4,18.8,23,25.1,35.5c23,48.1,15.7,108.7-25.1,148.4L223.3,464.7
	c-51.2,51.2-133.7,51.2-183.9,0c-51.2-51.2-51.2-133.7,0-183.9l79.4-79.4c-9.4,31.3-8.4,64.8,3.1,95.1l-33.4,33.4
	c-23,23-23,61.6,0,85.7c24,24,61.6,24,85.7,0L286,303.8c11.5-11.5,17.8-27.2,17.8-42.8s-6.3-31.3-17.8-42.8s-27.2-17.8-42.8-17.8
	l56.4-56.4C312.2,149.2,323.7,157.5,335.2,168z"/>
<path class="st1" d="M168,335.2c-10.4-10.4-18.8-23-25.1-35.5c-23-48.1-15.7-108.7,25.1-148.4L279.8,38.4
	c51.2-51.2,133.7-51.2,183.9,0c51.2,51.2,51.2,133.7,0,183.9l-79.4,79.4c9.4-31.3,8.4-64.8-3.1-95.1l33.4-33.4c23-23,23-61.6,0-85.7
	c-24-24-61.6-24-85.7,0L218.1,200.4c-11.5,11.5-17.8,27.2-17.8,42.8s6.3,31.3,17.8,42.8s27.2,17.8,42.8,17.8l-56.4,56.4
	C191,354,179.5,345.6,168,335.2z"/>
</svg>
