<?xml version="1.0" encoding="utf-8"?>
<!-- Generator: Adobe Illustrator 22.0.1, SVG Export Plug-In . SVG Version: 6.00 Build 0)  -->
<svg version="1.1" id="Layer_1" xmlns="http://www.w3.org/2000/svg" xmlns:xlink="http://www.w3.org/1999/xlink" x="0px" y="0px"
	 viewBox="0 0 512 512" style="enable-background:new 0 0 512 512;" xml:space="preserve">
<style type="text/css">
	.st0{fill:#D8F700;}
</style>
<g>
	<g>
		<path class="st0" d="M494.3,393.5c23.6-23.6,23.6-61.9,0-85.5c-23.6-23.6-61.9-23.6-85.5,0l-32.1,32.1c-8.9,8.9-23.4,8.9-32.3,0
			l-57.2-57.4c-3.6-3.6-8.4-5.5-13.3-5.5c-5,0-9.8,2-13.3,5.5c-15.7,15.7-36.5,24.3-58.7,24.3s-43-8.7-58.7-24.3l-51.8-51.8
			l117.3-117.3l51.8,51.8c14.4,14.4,23,33.5,24.1,53.8c0.6,10,8.9,17.8,18.8,17.8c0.3,0,0.7,0,1.1,0c10.3-0.6,18.3-9.5,17.7-19.8
			c-1.7-29.6-14.2-57.4-35.1-78.2L235.4,87l5.7-5.7c7.3-7.3,7.3-19.2,0-26.6c-7.3-7.3-19.2-7.3-26.6,0l-36.9,36.9l-63.9-63.9
			c-7.3-7.3-19.2-7.3-26.6,0c-7.3,7.3-7.3,19.2,0,26.6l63.9,63.9l-55,55l-63.9-63.9c-7.3-7.3-19.2-7.3-26.6,0
			c-7.3,7.3-7.3,19.2,0,26.6l64,63.9l-36.9,36.9c-7.3,7.3-7.3,19.2,0,26.6c3.7,3.7,8.5,5.5,13.3,5.5s9.6-1.9,13.3-5.5l5.7-5.7
			l51.8,51.8c22.8,22.8,53.1,35.3,85.2,35.3c25.8,0,50.5-8,70.9-23.1l45,45c11.8,11.8,27.3,17.7,42.7,17.7
			c15.5,0,30.9-5.9,42.7-17.7l32.1-32.1c8.9-8.9,23.4-8.9,32.3,0s8.9,23.4,0,32.3l-32.1,32.1c-11.4,11.4-17.7,26.5-17.7,42.7
			c0,16.2,6.3,31.3,17.7,42.7c3.7,3.7,8.5,5.5,13.3,5.5s9.6-1.9,13.3-5.5c7.3-7.3,7.3-19.2,0-26.6c-4.3-4.3-6.7-10-6.7-16.1
			c0-6.1,2.4-11.8,6.7-16.1L494.3,393.5z"/>
	</g>
</g>
</svg>
