<?xml version="1.0" encoding="utf-8"?>
<!-- Generator: Adobe Illustrator 22.0.1, SVG Export Plug-In . SVG Version: 6.00 Build 0)  -->
<svg version="1.1" id="Layer_1" xmlns="http://www.w3.org/2000/svg" xmlns:xlink="http://www.w3.org/1999/xlink" x="0px" y="0px"
	 viewBox="0 0 426.7 426.7" style="enable-background:new 0 0 426.7 426.7;" xml:space="preserve">
<style type="text/css">
	.st0{fill:#E51C23;}
</style>
<g>
	<polygon class="st0" points="171.9,179 146.1,204.9 213.4,272.1 213.4,220.4 	"/>
	<path class="st0" d="M213.4,0C164.8,35.5,105.2,56.6,40.7,57.1v100.1c0,119.5,70.8,222.6,172.7,269.5
		C315.3,379.8,386,276.7,386,157.2V57.1C321.4,56.6,261.8,35.5,213.4,0z M213.4,272.1L213.4,272.1v111.6
		c-82.1-45-134.3-132-134.3-226.5V93c47.7-5.8,93.3-21.6,134.3-46.8v174.2l0,0l69.2-69.2l25.9,25.9L213.4,272.1z"/>
</g>
</svg>
