
<svg version="1.1" id="Layer_1" xmlns="http://www.w3.org/2000/svg" xmlns:xlink="http://www.w3.org/1999/xlink" x="0px" y="0px"
	 viewBox="0 0 520 313" style="enable-background:new 0 0 520 313;" xml:space="preserve">
<style type="text/css">
	.st0{fill:#E1E1DF;}
</style>
<g>
	<path class="st0" d="M123.3,203.2c19.2-11.5,38.3-22.9,57.3-34.4c19-11.5,38-23.1,57.2-34.8c-1.5-3.5-3-6.8-4.5-10.2
		c-4.7-10.5-9.3-20.9-14-31.4c-1.1-2.5-2-5.2-3.4-7.5c-3.7-5.8-8.8-7.5-15.3-5.2c-8.4,3-16.8,6.1-25.2,9.2c-24,9.1-48,18.3-72,27.4
		c-5.1,1.9-10.4,2.9-15.9,2.4c-3.1-0.3-6-1.2-8.3-3.3c-3.6-3.1-4.3-7.9-1.9-12.9c2.4-5,6.2-8.8,10.8-11.6c7-4.3,14.1-8.5,21.3-12.4
		c28-14.8,56.1-29.4,84.1-44c5.6-2.9,11.3-5.9,17-8.6c4.4-2.1,9-3.4,14-3.1c5.4,0.4,10,2.8,13.4,6.9c3.1,3.8,5.8,8,8.4,12.1
		c9.6,15.2,19,30.6,28.6,45.8c15.4,24.3,31,48.4,46.5,72.6c2.3,3.6,3.9,7.6,4.5,11.9c0.6,4.2-1.3,6.8-5.3,6.9
		c-14.3,0.3-28.2,2.9-42,6.4c-18.6,4.7-37,9.8-55.5,14.8c-15.1,4.1-30.3,8.1-45.7,10.8c-9.3,1.6-18.6,2.9-28.1,2.6
		c-6.4-0.2-12.6-1-18.4-3.9C127.7,207.9,124.8,205.6,123.3,203.2z"/>
	<path class="st0" d="M18.4,206.8c2,1.5,3.7,2.7,5.4,3.9c13.7,9.5,28.6,16.7,44.2,22.6c18.3,6.8,37.2,11.4,56.6,14
		c18.2,2.4,36.5,3.1,54.9,2.1c14.5-0.8,28.9-2.9,43.1-5.7c21-4.1,41.6-9.8,62.3-15.1c15-3.9,30-7.6,45.2-10.2
		c16-2.8,32-4.5,48.2-4.1c19.2,0.4,37.7,4.3,55.8,10.8c23.7,8.6,45.5,20.7,65.3,36.4c0.6,0.5,1.2,1,2.1,1.8
		c-5.1-0.8-9.8-1.6-14.5-2.1c-8.5-1.1-17-2.1-25.6-3c-7.5-0.8-15-1.5-22.5-1.9c-14.5-0.8-29.1-1.6-43.7-2c-12-0.3-24-0.3-36,0.2
		c-17.8,0.8-35.1,4.4-52,9.9c-12.9,4.2-25.8,8.6-38.8,12.6c-15.3,4.7-31,7.8-46.8,9.9c-21.1,2.7-42.3,3.7-63.5,3.3
		c-26.7-0.5-52.2-6.3-75.9-18.8c-17.7-9.3-32.9-21.6-45.7-36.9c-6.7-8-12.7-16.6-17.4-26C19,208.1,18.8,207.6,18.4,206.8z"/>
	<path class="st0" d="M444.4,105.2c-0.2,29.6-23.7,52.1-51.5,52.7c-29.9,0.7-53.9-23.5-53.9-52.6c0-29.1,23.6-52.8,52.7-52.7
		C420.7,52.6,444.3,76.1,444.4,105.2z"/>
</g>
</svg>
