<?xml version="1.0" encoding="utf-8"?>
<!-- Generator: Adobe Illustrator 22.0.1, SVG Export Plug-In . SVG Version: 6.00 Build 0)  -->
<svg version="1.1" id="Layer_1" xmlns="http://www.w3.org/2000/svg" xmlns:xlink="http://www.w3.org/1999/xlink" x="0px" y="0px"
	 viewBox="0 0 331 520" style="enable-background:new 0 0 331 520;" xml:space="preserve">
<style type="text/css">
	.st0{fill:#868478;}
</style>
<path class="st0" d="M172.1,99.8c2.1,7.5,4.5,14.7,6.2,22.1c4.3,18.3,16.4,30.7,30.3,42.1c16.6,13.7,33.5,27,47,43.9
	c8.3,10.4,14.9,21.6,16.9,35.1c1.9,12.6-1.6,23.7-8.3,34.1c-6.6,10.2-15.4,18.3-24.9,25.7c-1.5,1.1-3.2,2.8-3.5,4.4
	c-2.2,11.1-7.5,20.6-14.3,29.4c-0.5,0.6-0.8,1.4-1.7,2.9c4.9-0.9,9-1.9,13.2-2.4c15.6-1.9,30.7-0.8,43.5,9.9
	c17.3,14.4,17.1,39.5-0.6,53.4c-16.6,13.1-35.4,14.2-54.9,8.3c-15.9-4.8-30.7-11.8-44.2-21.5c-2.5-1.8-4.1-1.7-6.5,0
	c-16,11.2-33.3,19.6-52.5,23.5c-17.2,3.6-33.2,0.6-47.1-10.6c-17.1-13.8-17.3-38.5-0.5-52.8c12.8-10.9,28-12.1,43.8-10.2
	c4.1,0.5,8.1,1.5,13.3,2.5c-1.5-2.2-2.6-3.5-3.4-5c-4-7.6-7.8-15.4-11.8-23c-1.2-2.2-2.6-4.5-4.4-6.2c-7.7-7.3-16.4-13.7-23.3-21.7
	c-17-19.6-18.3-41.3-5-63.7c8.2-13.8,19.3-25,31.2-35.5c8.6-7.6,17.1-15.4,26.3-22.3c16.9-12.6,26.6-29.3,30.9-49.7
	c0.8-4.1,2.2-8,3.4-12C171.1,100.4,171.5,100.3,172.1,99.8z M173.3,276.8c16.6-16.3,43.7-16,59.5,6.2c3.7-4,7.6-7.6,10.7-11.7
	c11.1-14.6,11.8-28.6,1.7-43.9c-4.3-6.5-9.3-12.7-15-18c-19.4-17.9-39.3-35.4-58.9-53c-6.3,6.1-13,12.8-20,19.1
	c-10.8,9.6-22,18.8-32.8,28.5c-9.3,8.4-18,17.4-23.5,28.9c-8.6,17.9,0.5,42.9,18.7,51.4C127.2,261.4,155.9,259.5,173.3,276.8z
	 M173.3,307.4c-2-3.2-3.5-5.8-5.2-8.2c-4.2-6.2-9.2-11.4-16.7-13.5c-13.1-3.7-23.7,6.1-20.7,19.4c0.8,3.5,2,7.2,4,10.1
	c4.3,6.5,8.9,12.9,14.1,18.7c7.8,8.5,16.4,16.4,24.9,24.9c13.9-13.3,27.9-26.4,38.1-42.8c1.9-3.1,3.2-6.6,4.1-10.1
	c1.7-6.1,1.1-12.1-3.9-16.6c-5.1-4.7-11.6-5.9-17.6-2.9c-4.9,2.4-9.3,6.2-13.3,10C178.2,299.3,176.2,303.3,173.3,307.4z
	 M154.3,374.5c-14.4-9.2-28.2-16-43.8-18c-8.1-1.1-16.3-1-23.9,3.1c-11.7,6.5-12.3,20.4-0.8,27.3c3.6,2.2,7.8,4,11.9,4.7
	C118.8,395,135.6,384,154.3,374.5z M193.3,373.9c10.9,8.7,34.2,17.8,46.7,18.5c8,0.4,15.5-1.6,22.2-6.1c9.8-6.7,9.9-19.4-0.4-25.6
	c-3.8-2.3-8.6-3.9-13.1-4.3C228.1,354.5,210.7,363.4,193.3,373.9z" fill="#FFFFFF"/>
</svg>
