<?xml version="1.0" encoding="utf-8"?>
<!-- Generator: Adobe Illustrator 22.0.1, SVG Export Plug-In . SVG Version: 6.00 Build 0)  -->
<svg version="1.1" id="Layer_1" xmlns="http://www.w3.org/2000/svg" xmlns:xlink="http://www.w3.org/1999/xlink" x="0px" y="0px"
	 viewBox="0 0 520 338" style="enable-background:new 0 0 520 338;" xml:space="preserve">
<style type="text/css">
	.st0{fill:#FF5A5F;}
</style>
<g id="S54XRa.tif">
	<g>
		<path class="st0" d="M66.1,187C95.2,127.5,124,68.3,153.2,8.6c31.6,61.5,63,122.6,94.2,183.5c0.4,0,0.7-0.1,1.1-0.1
			c-0.6-60.4-1.2-120.9-1.8-182.2c25.2,0.7,43.5,11.3,57.6,31.1c14.2,19.9,12.4,42.3,12.6,66.4c4.6-4.7,8.3-8.4,11.8-12.2
			c19.7-21,39.4-42.1,59.2-63c1.6-1.6,4.1-3.2,6.2-3.2c30.4-0.5,60.8-0.7,91.3-1.1c0.5,0,1,0.1,2.6,0.5
			c-41.7,43.9-82.9,87.4-124.5,131.1c48.5,49,96.7,97.7,145.2,146.7c-11.4,12-24.9,19.1-40.7,20.9c-22,2.7-41.1-4.3-56.8-20.1
			c-29.4-29.7-58.7-59.5-88.2-89.1c-1.2-1.2-2.3-2.7-4.7-3.5c0.4,38.1,0.7,76,1.2,114.7c-8.8,0.1-16.7,0.5-24.7,0.1
			c-10.9-0.4-22.1-0.1-32.8-2.3c-19.7-3.9-34.3-15-43.5-33.4C198,252.6,177,212,156.2,171.4c-0.4-0.6-0.7-1.2-1.6-2.4
			c-14,28.8-27.8,57.2-42.2,86.7C107.4,225.1,92,202.9,66.1,187z"/>
		<path class="st0" d="M52.4,321.9c-21.3,0.2-40.9-16.9-41.1-39.5c-0.1-22.9,17.4-41.1,39.9-41.3c22.6-0.2,40.9,17.5,41.1,40.1
			C92.5,303.5,74.7,321.7,52.4,321.9z"/>
	</g>
</g>
</svg>
