<?xml version="1.0" encoding="utf-8"?>
<!-- Generator: Adobe Illustrator 22.0.1, SVG Export Plug-In . SVG Version: 6.00 Build 0)  -->
<svg version="1.1" id="Layer_1" xmlns="http://www.w3.org/2000/svg" xmlns:xlink="http://www.w3.org/1999/xlink" x="0px" y="0px"
	 viewBox="0 0 520 520" style="enable-background:new 0 0 520 520;" xml:space="preserve">
<style type="text/css">
	.st0{fill:#E57979;}
</style>
<g>
	<path class="st0" d="M277.1,491.1c-3.7-1.1-7.6-2-11.2-3.5c-9.8-4.3-17.1-11-19-22.1c-1.1-6.3,1.4-11.9,6.8-15.4
		c2.2,3.5,4.2,7,6.5,10.4c5.4,7.8,13.5,8.8,20.5,2.5c9.3-8.3,13.4-19.4,16.5-31.1c5.4-20.4,1.8-39.3-7.8-57.7
		c-8.6-16.5-19.7-31.1-31.5-45.3c-4.3-5.2-8.8-10.3-13.2-15.4c-4.4-5-4.6-10.8-2.6-16.6c4.2-11.9,12.1-20.7,23.8-25.7
		c3-1.3,6.8-1.2,10.1-1c13.6,0.6,27.2,1.6,40.9,2.3c2.6,0.1,5.2-0.2,7.7-0.5c10.7-1.3,16.3-9.3,13.4-19.7c-1.2-4.4-3.4-8.6-5.4-13.3
		c1.4-0.3,2.8-0.6,4.2-0.9c3.5-0.5,7-1.1,8-5.3c1-4.1-0.3-7.3-4.6-9.3c1.7-1.4,3.2-2.5,4.6-3.9c3-2.9,3.2-5.1,0.7-8.4
		c-0.9-1.2-1.8-2.3-2.9-3.4c-3.7-3.9-3.3-9.2,1-12.5c1.7-1.3,3.5-2.4,5.1-3.7c3.3-2.7,3.9-5.3,1.2-8.6c-6.3-7.7-12.9-15.1-19.4-22.6
		c-1.8-2-3.7-4-5.4-6.1c-2.7-3.2-4.2-6.8-4-11.1c0.3-6,0.4-12.1,0-18c-0.3-4.7-2.6-7.2-6.4-7.2c-2.1,0-4.4,1.4-6.3,2.7
		c-1,0.7-1.8,2.1-2.1,3.4c-2.5,9.9-10.3,14.5-18.6,18.6c-3.4,1.7-6.7,3.8-10.3,5c-7.8,2.6-7.9,17.2-3.5,21.1
		c1.5,1.3,3.6,1.8,5.4,2.6c-2.4,3.3-6.2,4-10,1.3c-5.9-4.1-6.2-4.3-9.9,2c-2.9,4.8-5.1,10-7.1,15.3c-0.8,2-0.5,4.7,0,6.9
		c1.6,7.3,6.7,9.5,13.2,5.8c0.7-0.4,1.5-0.8,2.6-1.4c1.1,4,0.4,7.2-2.2,10c-3.6,3.8-8.4,5.1-13.3,5.9c-5.7,1-11.5,1.3-17.2,2.2
		c-1.3,0.2-2.9,1.3-3.5,2.4c-7,13.4-13.7,27-20.9,40.2c-3.3,6-7.6,11.4-11.6,17c-2,2.7-4.7,3.5-8.1,2.6c-20.8-5.1-36.4-17.7-49.5-34
		c-13.4-16.6-22.3-35.6-27.4-56.2c-7-28.1-6.3-55.9,4.4-83c8.8-22.4,23.5-40.4,43-54.5C177,43,193.1,34.2,211.6,30.7
		c3.1-0.6,6.2-1.2,9.3-1.8c5.7,0,11.3,0,17,0c1.1,0.2,2.1,0.5,3.2,0.7c6.7,1.5,13.6,2.6,20.1,4.6c23.3,7.1,42.8,20.6,60.9,36.4
		c16.3,14.2,30.8,30.1,43.3,47.7c7.9,11.2,15.9,22.7,21.6,35c5.5,12,8.9,25.2,12.1,38.2c6.9,28,10.2,56.6,10.8,85.5
		c0.9,37.8-2.7,74.9-15.4,110.8c-4.9,13.7-11.2,26.7-19.4,38.8c-8.8,13-19.4,24.4-30.8,35.1c-10.2,9.5-21.3,17.9-34.4,23.1
		c-6.6,2.6-13.5,4.3-20.3,6.4C285.4,491.1,281.2,491.1,277.1,491.1z"/>
</g>
</svg>
