<?xml version="1.0" encoding="utf-8"?>
<!-- Generator: Adobe Illustrator 22.0.1, SVG Export Plug-In . SVG Version: 6.00 Build 0)  -->
<svg version="1.1" id="Capa_1" xmlns="http://www.w3.org/2000/svg" xmlns:xlink="http://www.w3.org/1999/xlink" x="0px" y="0px"
	 viewBox="0 0 512 512" style="enable-background:new 0 0 512 512;" xml:space="preserve">
<style type="text/css">
	.st0{fill:#607D8B;}
</style>
<g>
	<g>
		<path class="st0" d="M437,75.1C388.6,26.7,324.4,0,256,0S123.3,26.6,75,75c-93.3,93.3-100,242.3-16.9,343.3
			c-11.5,23.5-25.1,39.1-40.3,46.6c-9.3,4.6-14.6,14.7-13.1,25c1.6,10.4,9.5,18.4,19.9,20.1c5.7,0.9,11.8,1.4,18.1,1.4l0,0
			c31.4,0,64.4-10.8,92-29.8C171.8,501.5,213.5,512,256,512c68.4,0,132.6-26.6,181-75s75-112.7,75-181S485.3,123.4,437,75.1z
			 M416.5,416.6C373.6,459.5,316.6,483,256,483c-40.5,0-80.3-10.8-114.9-31.2c-2.3-1.3-4.8-2-7.3-2c-3.1,0-6.3,1.1-8.9,3
			C92,478.2,59,482,44.5,482.3c17.3-12.9,31.7-32.8,43.9-60.6c2.3-5.1,1.3-11.2-2.5-15.4C6.6,316.6,10.8,180,95.5,95.3
			c42.9-42.9,99.9-66.5,160.5-66.5c60.7,0,117.6,23.6,160.5,66.5C505.1,184,505.1,328.1,416.5,416.6z"/>
		<path class="st0" d="M321,138.7c-23.2,0-44.9,9-61.3,25.4l-3.6,3.6l-3.6-3.6c-16.4-16.4-38.2-25.4-61.3-25.4
			c-23.1,0-44.8,9-61.1,25.3c-16.4,16.4-25.4,38.2-25.3,61.2c0,23.2,9.1,44.8,25.4,61.2l115.7,115.7c2.8,2.8,6.5,4.3,10.2,4.3
			c3.6,0,7.4-1.4,10.2-4.2l116-115.6c16.4-16.4,25.4-38.2,25.4-61.2c0-23.2-9-44.9-25.3-61.3C365.8,147.8,344,138.7,321,138.7z
			 M361.6,266.2L255.9,371.5L150.4,266c-10.9-10.9-16.9-25.4-16.9-40.9s6-29.9,16.8-40.7c10.8-10.8,25.3-16.8,40.7-16.8
			s29.9,6,40.9,16.9l13.9,13.9c5.7,5.7,14.8,5.7,20.5,0l13.8-13.8c10.9-10.9,25.4-16.9,40.9-16.9c15.3,0,29.8,6,40.7,16.9
			c10.9,10.9,16.9,25.4,16.8,40.7C378.5,240.8,372.5,255.3,361.6,266.2z"/>
	</g>
</g>
</svg>
