<?xml version="1.0" encoding="utf-8"?>
<!-- Generator: Adobe Illustrator 22.0.1, SVG Export Plug-In . SVG Version: 6.00 Build 0)  -->
<svg version="1.1" id="Layer_1" xmlns="http://www.w3.org/2000/svg" xmlns:xlink="http://www.w3.org/1999/xlink" x="0px" y="0px"
	 viewBox="0 0 480 480" style="enable-background:new 0 0 480 480;" xml:space="preserve">
<style type="text/css">
	.st0{fill:#B2DEBD;}
	.st1{fill:#596F5F;}
</style>
<g>
	<path class="st0" d="M292,292l140,140h40V320L368,216L292,292z"/>
	<path class="st0" d="M320,152c0,13.3-10.7,24-24,24s-24-10.7-24-24s10.7-24,24-24S320,138.7,320,152z"/>
	<path class="st0" d="M128,128L8,248v184h424L128,128z"/>
</g>
<path class="st1" d="M296,184c17.7,0,32-14.3,32-32s-14.3-32-32-32s-32,14.3-32,32S278.3,184,296,184z M296,136c8.8,0,16,7.2,16,16
	s-7.2,16-16,16s-16-7.2-16-16S287.2,136,296,136z"/>
<path class="st1" d="M472,40H8c-4.4,0-8,3.6-8,8v384c0,4.4,3.6,8,8,8h464c4.4,0,8-3.6,8-8V48C480,43.6,476.4,40,472,40z M16,56h448
	v244.7l-90.3-90.3c-3.1-3.1-8.2-3.1-11.3,0L292,280.7L133.7,122.3c-3.1-3.1-8.2-3.1-11.3,0L16,228.7V56z M16,424V251.3l112-112
	L412.7,424H16z M435.3,424l-132-132l64.7-64.7l96,96V424H435.3z"/>
</svg>
