<?xml version="1.0" encoding="utf-8"?>
<!-- Generator: Adobe Illustrator 22.0.1, SVG Export Plug-In . SVG Version: 6.00 Build 0)  -->
<svg version="1.1" id="Layer_1" xmlns="http://www.w3.org/2000/svg" xmlns:xlink="http://www.w3.org/1999/xlink" x="0px" y="0px"
	 viewBox="0 0 426.7 426.7" style="enable-background:new 0 0 426.7 426.7;" xml:space="preserve">
<style type="text/css">
	.st0{fill:#009688;}
</style>
<path class="st0" d="M384.5,220.4c-14.7,0-27.5,7.5-35.1,18.8c0,0.1-0.1,0.1-0.1,0.1c-0.2,0.3-0.4,0.7-0.7,1c-2,2.8-5.4,4.7-9.2,4.7
	c-6.2,0-11.3-5-11.3-11.2V98.5H192.9c-6.2,0-11.3-5-11.3-11.3c0-3.9,1.9-7.3,4.9-9.3c0.3-0.2,0.6-0.4,1-0.6
	c11.3-7.6,18.7-20.5,18.7-35.1C206.2,18.9,187.3,0,164,0s-42.2,18.9-42.2,42.2c0,14.7,7.4,27.5,18.8,35.1c0.1,0,0.1,0.1,0.1,0.1
	c0.3,0.2,0.7,0.4,1,0.7c2.8,2,4.7,5.4,4.7,9.1c0,6.2-5,11.3-11.2,11.3H0v135.3C0,240,5,245,11.3,245c3.8,0,7.1-1.9,9.2-4.7
	c0.2-0.4,0.4-0.7,0.7-1l0.1-0.1c7.6-11.3,20.5-18.8,35.1-18.8c23.3,0,42.2,18.9,42.2,42.2c0,23.3-18.9,42.2-42.2,42.2
	c-14.6,0-27.5-7.4-35.1-18.7c-0.2-0.4-0.4-0.7-0.6-1c-2-3-5.4-4.9-9.3-4.9c-6.2,0-11.3,5-11.3,11.3v135.3h135.3
	c6.2,0,11.2-5,11.2-11.3c0-3.8-1.9-7.1-4.7-9.1c-0.4-0.2-0.7-0.4-1-0.7l-0.1-0.1c-11.3-7.6-18.8-20.5-18.8-35.1
	c0-23.3,18.9-42.2,42.2-42.2s42.2,18.9,42.2,42.2c0,14.6-7.4,27.5-18.7,35.1c-0.4,0.2-0.7,0.4-1,0.6c-3,2-4.9,5.4-4.9,9.3
	c0,6.2,5,11.3,11.3,11.3h135.3V291.4c0-6.2,5-11.3,11.3-11.3c3.9,0,7.3,1.9,9.3,4.9c0.2,0.3,0.4,0.6,0.6,1
	c7.6,11.3,20.5,18.7,35.1,18.7c23.3,0,42.2-18.9,42.2-42.2C426.7,239.3,407.8,220.4,384.5,220.4z"/>
</svg>
