<?xml version="1.0" encoding="utf-8"?>
<!-- Generator: Adobe Illustrator 22.0.1, SVG Export Plug-In . SVG Version: 6.00 Build 0)  -->
<svg version="1.1" id="Layer_1" xmlns="http://www.w3.org/2000/svg" xmlns:xlink="http://www.w3.org/1999/xlink" x="0px" y="0px"
	 viewBox="0 0 512 512" style="enable-background:new 0 0 512 512;" xml:space="preserve">
<style type="text/css">
	.st0{fill:#00E7F7;}
</style>
<path class="st0" d="M512,185.5h-57.3V0H57.3v185.5H0v83.4l23.3,13.5V512h465.4V282.1l23.3-13V185.5z M482,251.3l-47.1,26.3
	l-45.1-26.1v-35.9H482V251.3z M149.9,215.6h89.9v35.9l-45,26l-45-26V215.6z M269.8,215.6h89.9v35.9l-45,26l-45-26V215.6z M87.3,30.1
	h337.5v155.4H87.3V30.1z M30,215.6h89.9v35.9l-45,26l-45-26V215.6z M294,481.9h-76V365.7h76V481.9z M458.7,481.9H324V335.6H188
	v146.3H53.3V299.8L75,312.3l60-34.7l60,34.7l60-34.7l60,34.7l60-34.7l59.8,34.6l24.1-13.4L458.7,481.9L458.7,481.9z"/>
<path class="st0" d="M77.9,422.3H162v-86.8H77.9V422.3z M107.9,365.7H132v26.5h-24.1V365.7z"/>
<path class="st0" d="M347.9,422.3H432v-86.8h-84.1V422.3z M377.9,365.7H402v26.5h-24.1V365.7z"/>
<path class="st0" d="M271,438.8c7.8,0,15.4-6.9,15-15.1c-0.4-8.2-6.6-15.1-15-15.1c-7.8,0-15.4,6.9-15,15.1
	C256.4,431.9,262.6,438.8,271,438.8z"/>
<path class="st0" d="M109.5,133.5l7.2-16.2c6.2,3.7,14.5,6,21.8,6c6.3,0,8.6-1.3,8.6-3.6c0-8.3-36.4-1.6-36.4-26.2
	c0-12.2,10.3-22.2,30.7-22.2c8.9,0,18,1.9,24.9,5.7l-6.7,16.1c-6.5-3.3-12.6-4.9-18.4-4.9c-6.5,0-8.6,1.9-8.6,4.1
	c0,7.9,36.4,1.3,36.4,25.6c0,12.1-10.3,22.2-30.7,22.2C127.2,140.3,116.1,137.5,109.5,133.5z"/>
<path class="st0" d="M242.8,72.8v65.9h-22.2v-24.3h-20.5v24.3h-22.2V72.8h22.2v23.4h20.5V72.8H242.8z"/>
<path class="st0" d="M253.3,105.8c0-20,15.7-34.5,37.2-34.5c21.5,0,37.2,14.5,37.2,34.5c0,20-15.7,34.5-37.2,34.5
	C269,140.3,253.3,125.8,253.3,105.8z M305.3,105.8c0-10.3-6.6-16.5-14.8-16.5c-8.2,0-14.8,6.2-14.8,16.5s6.6,16.5,14.8,16.5
	C298.7,122.3,305.3,116.1,305.3,105.8z"/>
<path class="st0" d="M399.9,97.7c0,15.3-11.7,24.9-30,24.9h-9.5v16.2h-22.2V72.8h31.7C388.2,72.8,399.9,82.4,399.9,97.7z
	 M377.5,97.7c0-4.8-2.9-7.7-9-7.7h-8.1v15.4h8.1C374.6,105.4,377.5,102.5,377.5,97.7z"/>
</svg>
