<?xml version="1.0" encoding="utf-8"?>
<!-- Generator: Adobe Illustrator 22.0.1, SVG Export Plug-In . SVG Version: 6.00 Build 0)  -->
<svg version="1.1" id="Layer_1" xmlns="http://www.w3.org/2000/svg" xmlns:xlink="http://www.w3.org/1999/xlink" x="0px" y="0px"
	 viewBox="0 0 512 512" style="enable-background:new 0 0 512 512;" xml:space="preserve">
<style type="text/css">
	.st0{fill:#FF9800;}
</style>
<path class="st0" d="M486,351.3H26C9.9,368.4,0,391.4,0,416.7C0,469.2,42.8,512,95.3,512h321.3c52.6,0,95.3-42.8,95.3-95.3
	C512,391.4,502.1,368.4,486,351.3z"/>
<path class="st0" d="M446.6,321.3c10.8-13.5,17.2-30.7,17.2-49.3s-6.5-35.7-17.2-49.3H65.4c-10.8,13.5-17.2,30.7-17.2,49.3
	s6.5,35.7,17.2,49.3H446.6z"/>
<path class="st0" d="M384.2,192.8c1.3-1.2,2.6-2.5,3.8-3.8c20.3-20.9,31.5-48.5,31.5-77.6C419.6,50,369.6,0,308.2,0
	c-8.3,0-15,6.7-15,15s6.7,15,15,15c13.9,0,25.2,11.3,25.2,25.2s-11.3,25.2-25.2,25.2H203.8c-39.3,0-71.2,32-71.2,71.2
	c0,15.4,4.9,29.6,13.2,41.2H384.2z"/>
</svg>
