<?xml version="1.0" encoding="utf-8"?>
<!-- Generator: Adobe Illustrator 22.0.1, SVG Export Plug-In . SVG Version: 6.00 Build 0)  -->
<svg version="1.1" id="Capa_1" xmlns="http://www.w3.org/2000/svg" xmlns:xlink="http://www.w3.org/1999/xlink" x="0px" y="0px"
	 viewBox="0 0 512 512" style="enable-background:new 0 0 512 512;" xml:space="preserve">
<style type="text/css">
	.st0{fill:#E91E63;}
</style>
<g>
	<g>
		<path class="st0" d="M494.4,283.2c11.7-13.4,17.6-29.3,17.6-47.7c0-16.6-6.1-31-18.2-43.2c-12.2-12.2-26.6-18.2-43.2-18.2H362
			c0.9-3,1.7-5.5,2.6-7.7c0.8-2.1,2-4.5,3.5-7c1.5-2.6,2.6-4.5,3.2-5.8c3.8-7.2,6.8-13.2,8.8-17.9s4-11.1,6.1-19.2
			c2-8.1,3-16.2,3-24.3c0-5.1-0.1-9.3-0.2-12.5s-0.6-8-1.6-14.4s-2.2-11.7-3.8-16c-1.6-4.3-4.2-9.1-7.7-14.4s-7.8-9.7-12.8-13
			s-11.4-6.1-19.2-8.3c-7.8-2.2-16.6-3.4-26.4-3.4c-5.5,0-10.3,2-14.4,6.1c-4.3,4.3-7.9,9.6-10.9,16s-5.1,11.9-6.2,16.6
			c-1.2,4.7-2.5,11.2-4,19.5c-1.9,9-3.4,15.4-4.3,19.4c-1,3.9-2.8,9.1-5.6,15.5c-2.8,6.4-6.1,11.5-9.9,15.4
			c-7,7-17.8,19.8-32.3,38.4c-10.5,13.7-21.2,26.6-32.3,38.7c-11.1,12.2-19.2,18.5-24.3,18.9c-5.3,0.4-9.9,2.6-13.8,6.6
			c-3.8,3.9-5.8,8.6-5.8,13.9v205.1c0,5.5,2,10.3,6.1,14.2c4.1,4,8.9,6,14.4,6.2c7.5,0.2,24.3,4.9,50.6,14.1
			c16.4,5.5,29.3,9.8,38.6,12.6c9.3,2.9,22.2,6,38.9,9.3c16.6,3.3,32,5,46.1,5h5.4h24.3h11.5c28.4-0.4,49.4-8.7,63-25
			c12.4-14.7,17.6-34,15.7-57.9c8.3-7.9,14.1-17.9,17.3-30.1c3.6-13,3.6-25.5,0-37.4c9.8-13,14.4-27.6,13.8-43.8
			C499.2,300.7,497.6,292.6,494.4,283.2z"/>
		<path class="st0" d="M112.6,215H20.5c-5.6,0-10.4,2-14.4,6.1C2,225.2,0,230,0,235.5v204.8c0,5.5,2,10.3,6.1,14.4
			c4.1,4,8.9,6.1,14.4,6.1h92.2c5.5,0,10.3-2,14.4-6.1s6.1-8.9,6.1-14.4V235.5c0-5.5-2-10.3-6.1-14.4C123,217.1,118.2,215,112.6,215
			z M75.8,413.9c-4.1,3.9-8.9,5.9-14.4,5.9c-5.8,0-10.6-2-14.6-5.9c-3.9-3.9-5.9-8.8-5.9-14.6c0-5.5,2-10.3,5.9-14.4
			s8.8-6.1,14.6-6.1c5.5,0,10.3,2,14.4,6.1s6.1,8.9,6.1,14.4C81.9,405.1,79.9,410,75.8,413.9z"/>
	</g>
</g>
</svg>
